<svg width="26" height="27" viewBox="0 0 26 27" fill="none" xmlns="http://www.w3.org/2000/svg">
<path d="M18.3333 14V16C18.3333 16.8841 18.6845 17.7319 19.3096 18.3571C19.9348 18.9822 20.7826 19.3334 21.6667 19.3334C22.5507 19.3334 23.3986 18.9822 24.0237 18.3571C24.6488 17.7319 25 16.8841 25 16V14C25.0033 11.4215 24.176 8.91049 22.6405 6.83896C21.1051 4.76743 18.9432 3.24558 16.4752 2.49884C14.0071 1.7521 11.3642 1.8202 8.93791 2.69306C6.51161 3.56591 4.43099 5.19708 3.00427 7.34494C1.57756 9.4928 0.880629 12.0431 1.01674 14.618C1.15284 17.193 2.11474 19.6556 3.75994 21.6411C5.40513 23.6265 7.64612 25.0293 10.1509 25.6415C12.6557 26.2537 15.2911 26.0428 17.6667 25.04" stroke="#1C1917" stroke-width="2" stroke-linecap="round" stroke-linejoin="round"/>
</svg>
